<svg xmlns="http://www.w3.org/2000/svg"  viewBox="0 0 32 32" width="512px" height="512px" baseProfile="basic"><circle cx="16" cy="16" r="14" fill="#e6a728"/><path fill="#fff" d="M19.408,15.793c0.491,0.221,0.878,0.571,1.164,1.051C20.857,17.325,21,17.868,21,18.47 c0,0.855-0.311,1.573-0.93,2.156c-0.621,0.583-1.388,0.874-2.299,0.874H12.5v-11h5.211c0.867,0,1.585,0.268,2.154,0.805 c0.567,0.537,0.852,1.208,0.852,2.01c0,0.502-0.119,0.98-0.357,1.434C20.122,15.206,19.804,15.553,19.408,15.793z M19.356,13.499 c0-0.464-0.162-0.855-0.484-1.174c-0.324-0.316-0.72-0.476-1.19-0.476H14v3.298h3.689c0.471,0,0.867-0.159,1.187-0.479 C19.196,14.351,19.356,13.96,19.356,13.499z M17.756,20.135c0.536,0,0.978-0.173,1.332-0.518c0.352-0.345,0.528-0.779,0.528-1.3 c0-0.516-0.179-0.947-0.532-1.296c-0.355-0.347-0.798-0.522-1.328-0.522H14v3.636H17.756z"/><rect width="1" height="2" x="14" y="9" fill="#fff"/><rect width="1" height="2" x="17" y="9" fill="#fff"/><rect width="1" height="2" x="14" y="21" fill="#fff"/><rect width="1" height="2" x="17" y="21" fill="#fff"/><path fill="#302529" d="M16,31C7.729,31,1,24.271,1,16S7.729,1,16,1s15,6.729,15,15S24.271,31,16,31z M16,3	C8.832,3,3,8.832,3,16s5.832,13,13,13s13-5.832,13-13S23.168,3,16,3z"/></svg>